<svg xmlns="http://www.w3.org/2000/svg" width="58" height="60"><svg width="58" height="60" viewBox="0 0 58 60" fill="none" xmlns="http://www.w3.org/2000/svg"><path fill-rule="evenodd" clip-rule="evenodd" d="M33.279 17.452c0 1.72.678 3.303 1.96 4.58 1.803 1.792 3.778 2.037 5.12 1.93 1.599-.131 3.206-.858 4.304-1.947l.281-.28c.807-.804 1.302-1.297 1.783-1.762l3.31 3.21 2.325-2.323.031-.057-3.261-3.25 2.32-2.312-2.425-2.415-2.32 2.315s-6.779-6.768-7.62-7.614c-.452-.457-.729-.938-.729-1.702 0-.81.367-1.35.68-1.658.453-.453 1.12-.734 1.731-.734a2.35 2.35 0 0 1 1.704.7l.05.05.05-.048 1.379-1.367.95-.947.041-.048-.064-.071A5.725 5.725 0 0 0 40.76 0a5.737 5.737 0 0 0-4.217 1.81c-1.03 1.088-1.617 2.547-1.617 4.004 0 2.42 1.383 3.906 2.36 4.811l-2.062 2.01c-1.2 1.194-1.946 3.043-1.946 4.817Zm4.379-2.388 2.048-2.041 4.585 4.523a221.2 221.2 0 0 1-2.075 2.073c-1.18 1.156-3.136 1.4-4.558-.015-.62-.621-.948-1.392-.948-2.234 0-.849.356-1.713.948-2.306Zm14.944 16.78c-3.134-3.11-7.303-4.82-11.737-4.82-4.433 0-8.603 1.71-11.738 4.82-3.134 3.114-4.86 7.248-4.86 11.646 0 4.399 1.726 8.53 4.86 11.64 3.135 3.112 7.305 4.823 11.738 4.823 4.434 0 8.603-1.711 11.737-4.823 3.135-3.11 4.863-7.241 4.863-11.64 0-4.398-1.728-8.532-4.863-11.646ZM40.865 55.718a12.3 12.3 0 0 1-8.718-3.583 12.102 12.102 0 0 1-3.616-8.645 12.1 12.1 0 0 1 3.616-8.65 12.285 12.285 0 0 1 8.718-3.584c3.293 0 6.39 1.271 8.72 3.585a12.108 12.108 0 0 1 3.61 8.649c0 6.741-5.53 12.228-12.33 12.228ZM24.293 19.739c0 7.007-3.863 13.397-10.094 16.7a12.857 12.857 0 0 1 4.315 4.49 12.663 12.663 0 0 1 1.676 6.294c0 3.41-1.344 6.62-3.778 9.035A12.844 12.844 0 0 1 7.305 60H.997L.987.815H5.22c5.094 0 9.886 1.967 13.492 5.546 3.605 3.574 5.582 8.326 5.582 13.378ZM15.692 9.353A14.799 14.799 0 0 0 5.28 5.052v29.377a14.803 14.803 0 0 0 10.411-4.3 14.516 14.516 0 0 0 4.333-10.39c0-3.921-1.533-7.61-4.333-10.386ZM5.28 55.765H7.3c4.749 0 8.612-3.832 8.612-8.542a8.465 8.465 0 0 0-2.519-6.042 8.645 8.645 0 0 0-6.11-2.497s-1.654-.009-2.003-.009v17.09Z" fill="#000"/></svg><style>@media (prefers-color-scheme:light){:root{filter:none}}@media (prefers-color-scheme:dark){:root{filter:none}}</style></svg>